<!-- https://logojoy.com/editor/22886693 -->
<svg  version="1.1" xmlns="http://www.w3.org/2000/svg" xmlns:xlink="http://www.w3.org/1999/xlink" xmlns:a="http://ns.adobe.com/AdobeSVGViewerExtensions/3.0/" x="0px" y="0px" viewBox="0 0 373 160" width="70%" height="70%"><defs id="SvgjsDefs1190"></defs><g id="SvgjsG1191" featurekey="root" fill="#ffffff"></g><g id="SvgjsG1192" featurekey="container1" fill="#677b95" transform="matrix(1,0,0,1,20,20)"><path xmlns="http://www.w3.org/2000/svg" fill-rule="nonzero" d="M0,0 H118 V140 H0,0zM6,6 V134 H112 V6,6z"></path></g><g id="SvgjsG1193" featurekey="text4" fill="#292929" transform="matrix(7.220217277670996,0,0,7.220217277670996,44.36823589429053,-45.30686668810999)"><path d="M4.42 21.86 q0.82 0 1.16 -0.16 t0.34 -0.62 q0 -0.36 -0.44 -0.63 t-1.34 -0.61 q-0.7 -0.26 -1.27 -0.54 t-0.97 -0.67 t-0.62 -0.93 t-0.22 -1.3 q0 -1.48 1.1 -2.34 t3.02 -0.86 q0.96 0 1.84 0.17 t1.4 0.37 l-0.52 2.32 q-0.52 -0.18 -1.13 -0.32 t-1.37 -0.14 q-1.4 0 -1.4 0.78 q0 0.18 0.06 0.32 t0.24 0.27 t0.49 0.28 t0.79 0.33 q0.98 0.36 1.62 0.71 t1.01 0.76 t0.52 0.91 t0.15 1.16 q0 1.56 -1.17 2.36 t-3.31 0.8 q-1.4 0 -2.33 -0.24 t-1.29 -0.4 l0.5 -2.42 q0.76 0.3 1.56 0.47 t1.58 0.17 z"></path></g><g id="SvgjsG1194" featurekey="text1" fill="#292929" transform="matrix(3.7974685377999093,0,0,3.7974685377999093,155.03797736532368,27.79746129470349)"><path d="M4.42 21.86 q0.82 0 1.16 -0.16 t0.34 -0.62 q0 -0.36 -0.44 -0.63 t-1.34 -0.61 q-0.7 -0.26 -1.27 -0.54 t-0.97 -0.67 t-0.62 -0.93 t-0.22 -1.3 q0 -1.48 1.1 -2.34 t3.02 -0.86 q0.96 0 1.84 0.17 t1.4 0.37 l-0.52 2.32 q-0.52 -0.18 -1.13 -0.32 t-1.37 -0.14 q-1.4 0 -1.4 0.78 q0 0.18 0.06 0.32 t0.24 0.27 t0.49 0.28 t0.79 0.33 q0.98 0.36 1.62 0.71 t1.01 0.76 t0.52 0.91 t0.15 1.16 q0 1.56 -1.17 2.36 t-3.31 0.8 q-1.4 0 -2.33 -0.24 t-1.29 -0.4 l0.5 -2.42 q0.76 0.3 1.56 0.47 t1.58 0.17 z M10.600000000000001 18.740000000000002 q0 -1.14 0.37 -2.15 t1.07 -1.76 t1.7 -1.19 t2.28 -0.44 q0.84 0 1.54 0.15 t1.36 0.43 l-0.62 2.38 q-0.42 -0.16 -0.92 -0.28 t-1.12 -0.12 q-1.32 0 -1.97 0.82 t-0.65 2.16 q0 1.42 0.61 2.2 t2.13 0.78 q0.54 0 1.16 -0.1 t1.14 -0.32 l0.42 2.44 q-0.52 0.22 -1.3 0.38 t-1.72 0.16 q-1.44 0 -2.48 -0.43 t-1.71 -1.17 t-0.98 -1.75 t-0.31 -2.19 z M27.440000000000005 16.12 q-0.4 -0.1 -0.94 -0.21 t-1.16 -0.11 q-0.28 0 -0.67 0.05 t-0.59 0.11 l0 8.04 l-2.98 0 l0 -9.96 q0.8 -0.28 1.89 -0.53 t2.43 -0.25 q0.24 0 0.58 0.03 t0.68 0.08 t0.68 0.12 t0.58 0.17 z M32.52 24 l-2.98 0 l0 -10.52 l2.98 0 l0 10.52 z M32.8 10.44 q0 0.82 -0.53 1.29 t-1.25 0.47 t-1.25 -0.47 t-0.53 -1.29 t0.53 -1.29 t1.25 -0.47 t1.25 0.47 t0.53 1.29 z M42.06 18.66 q0 -2.88 -2.12 -2.88 q-0.46 0 -0.91 0.12 t-0.73 0.3 l0 5.42 q0.22 0.04 0.56 0.07 t0.74 0.03 q1.22 0 1.84 -0.84 t0.62 -2.22 z M45.1 18.740000000000002 q0 1.26 -0.37 2.28 t-1.07 1.74 t-1.72 1.11 t-2.32 0.39 q-0.54 0 -1.13 -0.05 t-1.16 -0.13 t-1.09 -0.19 t-0.92 -0.23 l0 -14.7 l2.98 -0.48 l0 5.24 q0.5 -0.22 1.04 -0.34 t1.16 -0.12 q1.12 0 1.98 0.39 t1.44 1.11 t0.88 1.73 t0.3 2.25 z M57.24 18.72 q0 1.24 -0.36 2.27 t-1.04 1.76 t-1.63 1.13 t-2.13 0.4 q-1.16 0 -2.11 -0.4 t-1.63 -1.13 t-1.06 -1.76 t-0.38 -2.27 t0.39 -2.26 t1.08 -1.74 t1.64 -1.12 t2.07 -0.4 q1.14 0 2.09 0.4 t1.63 1.12 t1.06 1.74 t0.38 2.26 z M54.2 18.72 q0 -1.38 -0.55 -2.17 t-1.57 -0.79 t-1.58 0.79 t-0.56 2.17 t0.56 2.19 t1.58 0.81 t1.57 -0.81 t0.55 -2.19 z"></path></g></svg>
