<!-- https://logojoy.com/editor/22886693 -->
<svg  version="1.1" xmlns="http://www.w3.org/2000/svg" xmlns:xlink="http://www.w3.org/1999/xlink" xmlns:a="http://ns.adobe.com/AdobeSVGViewerExtensions/3.0/" x="0px" y="0px" viewBox="0 0 160 160" width="100%" height="100%"><defs id="SvgjsDefs1190"></defs><g id="SvgjsG1191" featurekey="root" fill="#ffffff"></g><g id="SvgjsG1192" featurekey="container1" fill="#677b95" transform="matrix(1,0,0,1,20,20)">

<path xmlns="http://www.w3.org/2000/svg" fill-rule="nonzero" d="M0,0 H118 V140 H0,0zM6,6 V134 H112 V6,6z"></path></g><g id="SvgjsG1193" featurekey="text4" fill="#292929" transform="matrix(7.220217277670996,0,0,7.220217277670996,44.36823589429053,-45.30686668810999)">

<path d="M4.42 21.86 q0.82 0 1.16 -0.16 t0.34 -0.62 q0 -0.36 -0.44 -0.63 t-1.34 -0.61 q-0.7 -0.26 -1.27 -0.54 t-0.97 -0.67 t-0.62 -0.93 t-0.22 -1.3 q0 -1.48 1.1 -2.34 t3.02 -0.86 q0.96 0 1.84 0.17 t1.4 0.37 l-0.52 2.32 q-0.52 -0.18 -1.13 -0.32 t-1.37 -0.14 q-1.4 0 -1.4 0.78 q0 0.18 0.06 0.32 t0.24 0.27 t0.49 0.28 t0.79 0.33 q0.98 0.36 1.62 0.71 t1.01 0.76 t0.52 0.91 t0.15 1.16 q0 1.56 -1.17 2.36 t-3.31 0.8 q-1.4 0 -2.33 -0.24 t-1.29 -0.4 l0.5 -2.42 q0.76 0.3 1.56 0.47 t1.58 0.17 z"></path></g><g id="SvgjsG1194" featurekey="text1" fill="#292929" transform="matrix(3.7974685377999093,0,0,3.7974685377999093,155.03797736532368,27.79746129470349)">

</g></svg>
